<svg data-v-423bf9ae="" xmlns="http://www.w3.org/2000/svg" viewBox="0 0 273 112" class="iconLeft"><!----><!----><!----><g data-v-423bf9ae="" id="97da1ebc-db97-407f-a971-fd0ad989be93" fill="#2D3826" transform="matrix(5.853658536585366,0,0,5.853658536585366,63.940157032594456,4.482258808322072)"><path d="M1.37 13.65L2.59 13.65L2.59 7.80C2.59 7.38 2.58 6.78 2.55 6.26C2.80 6.66 3.15 7.20 3.44 7.60L7.83 13.65L8.75 13.65L8.75 4.40L7.53 4.40L7.53 9.86C7.53 10.22 7.55 10.88 7.56 11.45C7.29 11.03 7.01 10.61 6.82 10.33L2.52 4.40L1.37 4.40ZM13.65 13.85C15.74 13.85 16.62 12.32 16.62 10.33C16.62 8.25 15.62 7.03 13.65 7.03C11.61 7.03 10.65 8.44 10.65 10.33C10.65 12.47 11.54 13.85 13.65 13.85ZM13.65 12.92C12.49 12.92 11.86 12.08 11.86 10.47C11.86 8.88 12.49 7.95 13.65 7.95C14.80 7.95 15.41 8.85 15.41 10.47C15.41 11.96 14.80 12.92 13.65 12.92ZM17.60 8.12L18.69 8.12L18.69 11.76C18.69 12.78 19.00 13.79 20.27 13.79C21.24 13.79 21.69 13.22 21.98 12.50L21.13 12.12C20.99 12.63 20.76 12.87 20.41 12.87C19.96 12.87 19.81 12.50 19.81 11.70L19.81 8.12L21.63 8.12L21.63 7.22L19.81 7.22L19.81 5.32L18.79 5.32L18.72 7.22L17.60 7.22ZM28.50 10.61L28.50 9.91C28.50 7.95 27.59 7.03 25.90 7.03C23.66 7.03 22.93 8.75 22.93 10.47C22.93 12.78 24.02 13.85 25.93 13.85C27.34 13.85 28.18 13.16 28.50 12.01L27.52 11.82C27.34 12.40 26.80 12.92 25.96 12.92C24.49 12.92 24.15 11.80 24.14 10.61ZM25.87 7.95C26.88 7.95 27.34 8.61 27.34 9.46L27.34 9.72L24.18 9.72C24.35 8.50 24.98 7.95 25.87 7.95ZM34.76 13.65L35.71 13.65L35.71 3.60L34.59 3.60L34.59 7.76C34.20 7.32 33.54 7.03 32.70 7.03C30.83 7.03 29.89 8.50 29.89 10.54C29.89 12.10 30.46 13.85 32.47 13.85C33.57 13.85 34.30 13.34 34.68 12.63ZM32.70 12.92C31.29 12.92 31.09 11.48 31.09 10.47C31.09 8.85 31.60 7.95 32.80 7.95C34.36 7.95 34.59 9.38 34.59 10.26C34.59 11.68 33.99 12.92 32.70 12.92Z"></path></g><defs data-v-423bf9ae=""><linearGradient data-v-423bf9ae="" gradientTransform="rotate(25)" id="0b799a40-3899-4f18-8244-8f8d9a6391be" x1="0%" y1="0%" x2="100%" y2="0%"><stop data-v-423bf9ae="" offset="0%" style="stop-color: rgb(79, 126, 72); stop-opacity: 1;"></stop><stop data-v-423bf9ae="" offset="100%" style="stop-color: rgb(202, 230, 165); stop-opacity: 1;"></stop></linearGradient></defs><g data-v-423bf9ae="" id="474623cb-132d-448a-a222-0130141df3eb" transform="matrix(1.1111098395453558,0,0,1.1111098395453558,0.020247606272203456,0.4445589980204403)" stroke="none" fill="url(#0b799a40-3899-4f18-8244-8f8d9a6391be)"><path d="M4.461 3.476L14.568.255c3.722-1.186 8.023 1.88 9.606 6.846l2.093 6.564-23.59 7.516-2.093-6.565C-.997 9.651.738 4.662 4.461 3.476zM21.74 81.013L4.109 25.678 27.7 18.161l17.631 55.334-23.591 7.518zm4.894-7.944L12.282 28.026 8.912 29.1l14.352 45.042 3.37-1.073zm6.74-2.148L19.022 25.878l-3.37 1.074 14.351 45.042 3.371-1.073zm6.738-2.147L25.761 23.731l-3.37 1.074 14.352 45.042 3.369-1.073zm6.651 9.216l-4.818 1.535-1.894 6.909-6.611 2.106L27.898 84l-4.818 1.535L40.731 100l6.032-22.01z"></path></g><!----></svg>